<svg width="100" height="100" viewBox="0 0 750 133" fill="none" xmlns="http://www.w3.org/2000/svg">
    <rect width="750" height="133" fill="#ffc107" />
    <path
        d="M63.56 69.68C63.56 70.48 63.16 70.88 62.36 70.88H35C34.68 70.88 34.52 71.04 34.52 71.36V80.12C34.52 83.48 35.44 86.24 37.28 88.4C39.2 90.48 41.68 91.52 44.72 91.52C47.28 91.52 49.44 90.76 51.2 89.24C53.04 87.64 54.24 85.6 54.8 83.12C55.04 82.4 55.48 82.04 56.12 82.04L62.12 82.28C62.44 82.28 62.72 82.4 62.96 82.64C63.2 82.88 63.28 83.2 63.2 83.6C62.56 88.32 60.6 92.08 57.32 94.88C54.12 97.6 49.92 98.96 44.72 98.96C39.04 98.96 34.48 97.28 31.04 93.92C27.68 90.56 26 86.12 26 80.6V54.68C26 49.24 27.68 44.84 31.04 41.48C34.48 38.04 39.04 36.32 44.72 36.32C50.48 36.32 55.04 38.04 58.4 41.48C61.84 44.84 63.56 49.24 63.56 54.68V69.68ZM44.72 43.76C41.68 43.76 39.2 44.84 37.28 47C35.44 49.08 34.52 51.84 34.52 55.28V63.32C34.52 63.64 34.68 63.8 35 63.8H54.68C55 63.8 55.16 63.64 55.16 63.32V55.28C55.16 51.84 54.2 49.08 52.28 47C50.36 44.84 47.84 43.76 44.72 43.76ZM77.3872 98C76.5872 98 76.1872 97.6 76.1872 96.8V15.2C76.1872 14.4 76.5872 14 77.3872 14H83.5072C84.3072 14 84.7072 14.4 84.7072 15.2V63.44C84.7072 63.6 84.7872 63.72 84.9472 63.8C85.1072 63.88 85.2272 63.84 85.3072 63.68L103.307 38C103.627 37.52 104.107 37.28 104.747 37.28H110.987C111.467 37.28 111.787 37.44 111.947 37.76C112.107 38 112.027 38.32 111.707 38.72L99.8272 55.76C99.5872 56 99.5472 56.24 99.7072 56.48L113.867 96.68L113.987 97.16C113.987 97.72 113.627 98 112.907 98H106.547C105.827 98 105.347 97.68 105.107 97.04L94.4272 63.68C94.3472 63.2 94.1072 63.16 93.7072 63.56L84.9472 76.04C84.7872 76.2 84.7072 76.4 84.7072 76.64V96.8C84.7072 97.6 84.3072 98 83.5072 98H77.3872ZM142.58 36.32C148.18 36.32 152.66 38.16 156.02 41.84C159.38 45.44 161.06 50.28 161.06 56.36V96.8C161.06 97.6 160.66 98 159.86 98H153.74C152.94 98 152.54 97.6 152.54 96.8V93.2C152.54 93.04 152.46 92.96 152.3 92.96C152.22 92.88 152.1 92.92 151.94 93.08C148.98 97 144.54 98.96 138.62 98.96C134.22 98.96 130.38 97.72 127.1 95.24C123.9 92.68 122.3 88.2 122.3 81.8C122.3 75 124.26 70.04 128.18 66.92C132.1 63.72 137.26 62.12 143.66 62.12H152.06C152.38 62.12 152.54 61.96 152.54 61.64V56.96C152.54 52.96 151.62 49.76 149.78 47.36C147.94 44.96 145.46 43.76 142.34 43.76C139.94 43.76 137.86 44.56 136.1 46.16C134.42 47.76 133.42 49.8 133.1 52.28C133.1 53.08 132.7 53.48 131.9 53.48L125.18 53.36C124.78 53.36 124.46 53.24 124.22 53C124.06 52.76 124.02 52.48 124.1 52.16C124.5 47.44 126.42 43.64 129.86 40.76C133.3 37.8 137.54 36.32 142.58 36.32ZM140.42 91.52C143.7 91.52 146.54 90.48 148.94 88.4C151.34 86.24 152.54 83.28 152.54 79.52V69.44C152.54 69.12 152.38 68.96 152.06 68.96H143.54C139.7 68.96 136.66 70 134.42 72.08C132.18 74.08 131.06 77.08 131.06 81.08C131.06 84.6 131.9 87.24 133.58 89C135.34 90.68 137.62 91.52 140.42 91.52ZM195.99 36.44C200.87 36.44 204.63 38.12 207.27 41.48C209.99 44.84 211.35 49.52 211.35 55.52V96.8C211.35 97.6 210.95 98 210.15 98H204.03C203.23 98 202.83 97.6 202.83 96.8V56.24C202.83 52.32 201.95 49.28 200.19 47.12C198.51 44.96 196.15 43.88 193.11 43.88C189.91 43.88 187.39 45.04 185.55 47.36C183.79 49.68 182.91 52.84 182.91 56.84V96.8C182.91 97.6 182.51 98 181.71 98H175.59C174.79 98 174.39 97.6 174.39 96.8V38.48C174.39 37.68 174.79 37.28 175.59 37.28H181.71C182.51 37.28 182.91 37.68 182.91 38.48V42.32C182.91 42.48 182.99 42.6 183.15 42.68C183.31 42.76 183.43 42.68 183.51 42.44C184.95 40.44 186.75 38.96 188.91 38C191.15 36.96 193.51 36.44 195.99 36.44ZM265.113 98.6C259.593 98.6 255.153 97.2 251.793 94.4C248.513 91.52 246.873 87.72 246.873 83V82.16C246.873 81.36 247.273 80.96 248.073 80.96H253.833C254.633 80.96 255.033 81.36 255.033 82.16V82.88C255.033 85.44 255.953 87.6 257.793 89.36C259.713 91.12 262.193 92 265.233 92C268.113 92 270.433 91.12 272.193 89.36C273.953 87.6 274.833 85.36 274.833 82.64C274.833 80.56 274.273 78.84 273.153 77.48C272.033 76.04 270.713 74.92 269.193 74.12C267.753 73.32 265.553 72.28 262.593 71C259.473 69.72 256.873 68.48 254.793 67.28C252.793 66 251.033 64.24 249.513 62C248.073 59.68 247.353 56.76 247.353 53.24C247.353 48.12 248.913 44.08 252.033 41.12C255.233 38.16 259.513 36.68 264.873 36.68C270.313 36.68 274.633 38.2 277.833 41.24C281.033 44.28 282.633 48.32 282.633 53.36V53.72C282.633 54.52 282.233 54.92 281.433 54.92H275.913C275.113 54.92 274.713 54.52 274.713 53.72V53C274.713 50.28 273.793 48.04 271.953 46.28C270.193 44.52 267.873 43.64 264.993 43.64C262.113 43.64 259.793 44.56 258.033 46.4C256.353 48.16 255.513 50.36 255.513 53C255.513 54.92 256.033 56.56 257.073 57.92C258.113 59.2 259.393 60.28 260.913 61.16C262.433 61.96 264.553 62.96 267.273 64.16C270.553 65.6 273.233 66.96 275.313 68.24C277.473 69.52 279.353 71.32 280.953 73.64C282.553 75.96 283.353 78.84 283.353 82.28C283.353 87.24 281.713 91.2 278.433 94.16C275.153 97.12 270.713 98.6 265.113 98.6ZM315.516 36.32C320.556 36.32 324.596 38.04 327.636 41.48C330.676 44.84 332.196 49.24 332.196 54.68V80.6C332.196 86.2 330.676 90.68 327.636 94.04C324.596 97.32 320.556 98.96 315.516 98.96C313.276 98.96 311.156 98.56 309.156 97.76C307.156 96.88 305.396 95.56 303.876 93.8C303.716 93.64 303.556 93.6 303.396 93.68C303.316 93.76 303.276 93.88 303.276 94.04V120.08C303.276 120.88 302.876 121.28 302.076 121.28H295.956C295.156 121.28 294.756 120.88 294.756 120.08V38.48C294.756 37.68 295.156 37.28 295.956 37.28H302.076C302.876 37.28 303.276 37.68 303.276 38.48V41.24C303.276 41.4 303.356 41.52 303.516 41.6C303.676 41.6 303.836 41.52 303.996 41.36C305.436 39.68 307.156 38.44 309.156 37.64C311.236 36.76 313.356 36.32 315.516 36.32ZM323.796 55.28C323.796 51.84 322.796 49.08 320.796 47C318.876 44.84 316.396 43.76 313.356 43.76C310.396 43.76 307.956 44.84 306.036 47C304.196 49.08 303.276 51.84 303.276 55.28V80C303.276 83.44 304.196 86.24 306.036 88.4C307.956 90.48 310.396 91.52 313.356 91.52C316.396 91.52 318.876 90.48 320.796 88.4C322.796 86.24 323.796 83.44 323.796 80V55.28ZM363.004 98.96C357.244 98.96 352.644 97.28 349.204 93.92C345.844 90.56 344.164 86.12 344.164 80.6V54.8C344.164 49.36 345.884 44.92 349.324 41.48C352.764 38.04 357.324 36.32 363.004 36.32C368.764 36.32 373.364 38.04 376.804 41.48C380.244 44.92 381.964 49.36 381.964 54.8V80.6C381.964 86.12 380.244 90.56 376.804 93.92C373.364 97.28 368.764 98.96 363.004 98.96ZM363.004 91.4C366.044 91.4 368.524 90.36 370.444 88.28C372.444 86.2 373.444 83.44 373.444 80V55.28C373.444 51.84 372.444 49.08 370.444 47C368.524 44.84 366.044 43.76 363.004 43.76C359.964 43.76 357.484 44.84 355.564 47C353.644 49.08 352.684 51.84 352.684 55.28V80C352.684 83.44 353.644 86.2 355.564 88.28C357.484 90.36 359.964 91.4 363.004 91.4ZM415.809 36.68C417.809 36.68 419.529 37.12 420.969 38C421.529 38.32 421.729 38.84 421.569 39.56L420.129 45.8C420.049 46.52 419.569 46.76 418.689 46.52C417.729 46.04 416.529 45.8 415.089 45.8C414.449 45.8 413.969 45.84 413.649 45.92C410.769 46.08 408.409 47.6 406.569 50.48C404.729 53.28 403.809 56.72 403.809 60.8V96.8C403.809 97.6 403.409 98 402.609 98H396.489C395.689 98 395.289 97.6 395.289 96.8V38.48C395.289 37.68 395.689 37.28 396.489 37.28H402.609C403.409 37.28 403.809 37.68 403.809 38.48V45.68C403.809 45.92 403.849 46.04 403.929 46.04C404.089 46.04 404.249 45.96 404.409 45.8C406.729 39.72 410.529 36.68 415.809 36.68ZM451.688 42.44C451.688 43.24 451.288 43.64 450.488 43.64H441.368C441.048 43.64 440.888 43.8 440.888 44.12V80.84C440.888 84.52 441.528 87.08 442.808 88.52C444.088 89.88 446.048 90.52 448.688 90.44H449.888C450.688 90.44 451.088 90.84 451.088 91.64V96.8C451.088 97.6 450.688 98 449.888 98H446.888C442.168 98 438.568 97 436.088 95C433.688 92.92 432.488 89.04 432.488 83.36V44.12C432.488 43.8 432.328 43.64 432.008 43.64H427.328C426.528 43.64 426.128 43.24 426.128 42.44V38.48C426.128 37.68 426.528 37.28 427.328 37.28H432.008C432.328 37.28 432.488 37.12 432.488 36.8V23.36C432.488 22.56 432.888 22.16 433.688 22.16H439.688C440.488 22.16 440.888 22.56 440.888 23.36V36.8C440.888 37.12 441.048 37.28 441.368 37.28H450.488C451.288 37.28 451.688 37.68 451.688 38.48V42.44Z"
        fill="#212529" />
</svg>