<svg width="500" height="80" viewBox="0 0 500 80" fill="none" xmlns="http://www.w3.org/2000/svg">
    <rect width="500" height="80" fill="#FFC107" />
    <path
        d="M37.2152 41.3311C37.2152 41.8531 36.936 42.1141 36.3776 42.1141H17.2816C17.0583 42.1141 16.9466 42.2185 16.9466 42.4273V48.1432C16.9466 50.3356 17.5887 52.1365 18.8729 53.5459C20.213 54.9031 21.9439 55.5817 24.0657 55.5817C25.8525 55.5817 27.3601 55.0858 28.5885 54.094C29.8727 53.05 30.7103 51.7189 31.1011 50.1007C31.2686 49.6309 31.5757 49.396 32.0224 49.396L36.2101 49.5526C36.4335 49.5526 36.6289 49.6309 36.7964 49.7875C36.9639 49.9441 37.0198 50.1529 36.9639 50.4139C36.5172 53.4937 35.1492 55.9471 32.86 57.774C30.6265 59.5488 27.6951 60.4362 24.0657 60.4362C20.1013 60.4362 16.9187 59.34 14.5177 57.1476C12.1726 54.9553 11 52.0582 11 48.4564V31.5436C11 27.994 12.1726 25.123 14.5177 22.9306C16.9187 20.6861 20.1013 19.5638 24.0657 19.5638C28.0859 19.5638 31.2686 20.6861 33.6137 22.9306C36.0147 25.123 37.2152 27.994 37.2152 31.5436V41.3311ZM24.0657 24.4183C21.9439 24.4183 20.213 25.123 18.8729 26.5324C17.5887 27.8896 16.9466 29.6905 16.9466 31.9351V37.1812C16.9466 37.39 17.0583 37.4944 17.2816 37.4944H31.0174C31.2407 37.4944 31.3524 37.39 31.3524 37.1812V31.9351C31.3524 29.6905 30.6823 27.8896 29.3423 26.5324C28.0022 25.123 26.2433 24.4183 24.0657 24.4183ZM46.866 59.8098C46.3076 59.8098 46.0284 59.5488 46.0284 59.0268V5.783C46.0284 5.261 46.3076 5 46.866 5H51.1374C51.6958 5 51.975 5.261 51.975 5.783V37.2595C51.975 37.3639 52.0308 37.4422 52.1425 37.4944C52.2542 37.5466 52.3379 37.5205 52.3938 37.4161L64.9568 20.66C65.1802 20.3468 65.5152 20.1902 65.9619 20.1902H70.3171C70.6521 20.1902 70.8755 20.2946 70.9871 20.5034C71.0988 20.66 71.043 20.8688 70.8196 21.1298L62.5281 32.2483C62.3606 32.4049 62.3326 32.5615 62.4443 32.7181L72.3272 58.9485L72.411 59.2617C72.411 59.6271 72.1597 59.8098 71.6572 59.8098H67.2182C66.7157 59.8098 66.3806 59.601 66.2131 59.1834L58.7591 37.4161C58.7033 37.1029 58.5358 37.0768 58.2566 37.3378L52.1425 45.481C52.0308 45.5854 51.975 45.7159 51.975 45.8725V59.0268C51.975 59.5488 51.6958 59.8098 51.1374 59.8098H46.866ZM92.3676 19.5638C96.2762 19.5638 99.403 20.7644 101.748 23.1655C104.093 25.5145 105.266 28.6726 105.266 32.6398V59.0268C105.266 59.5488 104.987 59.8098 104.428 59.8098H100.157C99.5984 59.8098 99.3192 59.5488 99.3192 59.0268V56.6778C99.3192 56.5734 99.2634 56.5213 99.1517 56.5213C99.0959 56.4691 99.0121 56.4952 98.9005 56.5996C96.8345 59.1573 93.7356 60.4362 89.6037 60.4362C86.5327 60.4362 83.8526 59.6271 81.5633 58.0089C79.3298 56.3386 78.2131 53.4154 78.2131 49.2394C78.2131 44.8024 79.5811 41.566 82.3171 39.5302C85.053 37.4422 88.6545 36.3982 93.1214 36.3982H98.9842C99.2076 36.3982 99.3192 36.2938 99.3192 36.085V33.0313C99.3192 30.4213 98.6771 28.3333 97.3929 26.7673C96.1086 25.2013 94.3777 24.4183 92.2001 24.4183C90.525 24.4183 89.0733 24.9403 87.8449 25.9843C86.6723 27.0283 85.9743 28.3594 85.751 29.9776C85.751 30.4996 85.4718 30.7606 84.9134 30.7606L80.2232 30.6823C79.944 30.6823 79.7207 30.604 79.5532 30.4474C79.4415 30.2908 79.4136 30.1081 79.4694 29.8993C79.7486 26.8195 81.0887 24.34 83.4896 22.4608C85.8906 20.5295 88.8499 19.5638 92.3676 19.5638ZM90.86 55.5817C93.1493 55.5817 95.1315 54.9031 96.8066 53.5459C98.4817 52.1365 99.3192 50.2051 99.3192 47.7517V41.1745C99.3192 40.9657 99.2076 40.8613 98.9842 40.8613H93.0376C90.3575 40.8613 88.2357 41.5399 86.6723 42.8971C85.1089 44.2021 84.3272 46.1596 84.3272 48.7696C84.3272 51.0664 84.9134 52.789 86.086 53.9374C87.3144 55.0336 88.9058 55.5817 90.86 55.5817ZM129.645 19.6421C133.051 19.6421 135.676 20.7383 137.518 22.9306C139.417 25.123 140.366 28.1767 140.366 32.0917V59.0268C140.366 59.5488 140.087 59.8098 139.528 59.8098H135.257C134.699 59.8098 134.419 59.5488 134.419 59.0268V32.5615C134.419 30.0037 133.805 28.0201 132.577 26.6107C131.404 25.2013 129.757 24.4966 127.635 24.4966C125.402 24.4966 123.643 25.2535 122.359 26.7673C121.13 28.2811 120.516 30.343 120.516 32.953V59.0268C120.516 59.5488 120.237 59.8098 119.679 59.8098H115.407C114.849 59.8098 114.57 59.5488 114.57 59.0268V20.9732C114.57 20.4512 114.849 20.1902 115.407 20.1902H119.679C120.237 20.1902 120.516 20.4512 120.516 20.9732V23.4787C120.516 23.5831 120.572 23.6614 120.684 23.7136C120.795 23.7658 120.879 23.7136 120.935 23.557C121.94 22.252 123.196 21.2864 124.704 20.66C126.267 19.9814 127.914 19.6421 129.645 19.6421ZM177.89 60.2013C174.037 60.2013 170.939 59.2878 168.593 57.4609C166.304 55.5817 165.159 53.1022 165.159 50.0224V49.4743C165.159 48.9523 165.439 48.6913 165.997 48.6913H170.017C170.576 48.6913 170.855 48.9523 170.855 49.4743V49.9441C170.855 51.6145 171.497 53.0239 172.781 54.1723C174.121 55.3207 175.852 55.8949 177.974 55.8949C179.984 55.8949 181.603 55.3207 182.832 54.1723C184.06 53.0239 184.674 51.5623 184.674 49.7875C184.674 48.4303 184.283 47.308 183.502 46.4206C182.72 45.481 181.799 44.7502 180.738 44.2282C179.733 43.7062 178.197 43.0276 176.131 42.1924C173.954 41.3572 172.139 40.5481 170.687 39.7651C169.291 38.9299 168.063 37.7815 167.002 36.3199C165.997 34.8061 165.494 32.9008 165.494 30.604C165.494 27.2632 166.583 24.6271 168.761 22.6957C170.994 20.7644 173.982 19.7987 177.723 19.7987C181.52 19.7987 184.535 20.7905 186.768 22.7741C189.002 24.7576 190.118 27.3937 190.118 30.6823V30.9172C190.118 31.4392 189.839 31.7002 189.281 31.7002H185.428C184.87 31.7002 184.591 31.4392 184.591 30.9172V30.4474C184.591 28.6726 183.948 27.211 182.664 26.0626C181.436 24.9142 179.817 24.34 177.806 24.34C175.796 24.34 174.177 24.9403 172.949 26.1409C171.776 27.2893 171.19 28.7248 171.19 30.4474C171.19 31.7002 171.553 32.7703 172.279 33.6577C173.004 34.4929 173.898 35.1976 174.959 35.7718C176.02 36.2938 177.499 36.9463 179.398 37.7293C181.687 38.6689 183.558 39.5563 185.009 40.3915C186.517 41.2267 187.829 42.4012 188.946 43.915C190.062 45.4288 190.621 47.308 190.621 49.5526C190.621 52.789 189.476 55.3729 187.187 57.3043C184.898 59.2356 181.799 60.2013 177.89 60.2013ZM213.069 19.5638C216.587 19.5638 219.407 20.6861 221.528 22.9306C223.65 25.123 224.711 27.994 224.711 31.5436V48.4564C224.711 52.1104 223.65 55.0336 221.528 57.226C219.407 59.3661 216.587 60.4362 213.069 60.4362C211.506 60.4362 210.026 60.1752 208.63 59.6532C207.234 59.079 206.006 58.2177 204.945 57.0694C204.833 56.965 204.722 56.9389 204.61 56.9911C204.554 57.0433 204.526 57.1216 204.526 57.226V74.217C204.526 74.739 204.247 75 203.689 75H199.417C198.859 75 198.58 74.739 198.58 74.217V20.9732C198.58 20.4512 198.859 20.1902 199.417 20.1902H203.689C204.247 20.1902 204.526 20.4512 204.526 20.9732V22.7741C204.526 22.8784 204.582 22.9567 204.694 23.0089C204.805 23.0089 204.917 22.9567 205.029 22.8523C206.034 21.7562 207.234 20.9471 208.63 20.4251C210.082 19.8509 211.562 19.5638 213.069 19.5638ZM218.848 31.9351C218.848 29.6905 218.15 27.8896 216.754 26.5324C215.414 25.123 213.683 24.4183 211.562 24.4183C209.496 24.4183 207.793 25.123 206.453 26.5324C205.168 27.8896 204.526 29.6905 204.526 31.9351V48.0649C204.526 50.3095 205.168 52.1365 206.453 53.5459C207.793 54.9031 209.496 55.5817 211.562 55.5817C213.683 55.5817 215.414 54.9031 216.754 53.5459C218.15 52.1365 218.848 50.3095 218.848 48.0649V31.9351ZM246.214 60.4362C242.193 60.4362 238.983 59.34 236.582 57.1476C234.237 54.9553 233.064 52.0582 233.064 48.4564V31.6219C233.064 28.0723 234.265 25.1752 236.666 22.9306C239.067 20.6861 242.249 19.5638 246.214 19.5638C250.234 19.5638 253.444 20.6861 255.845 22.9306C258.246 25.1752 259.447 28.0723 259.447 31.6219V48.4564C259.447 52.0582 258.246 54.9553 255.845 57.1476C253.444 59.34 250.234 60.4362 246.214 60.4362ZM246.214 55.5034C248.335 55.5034 250.066 54.8248 251.406 53.4676C252.802 52.1104 253.5 50.3095 253.5 48.0649V31.9351C253.5 29.6905 252.802 27.8896 251.406 26.5324C250.066 25.123 248.335 24.4183 246.214 24.4183C244.092 24.4183 242.361 25.123 241.021 26.5324C239.681 27.8896 239.011 29.6905 239.011 31.9351V48.0649C239.011 50.3095 239.681 52.1104 241.021 53.4676C242.361 54.8248 244.092 55.5034 246.214 55.5034ZM283.069 19.7987C284.465 19.7987 285.666 20.0858 286.671 20.66C287.061 20.8688 287.201 21.2081 287.089 21.6779L286.084 25.7494C286.029 26.2192 285.693 26.3758 285.079 26.2192C284.409 25.906 283.572 25.7494 282.567 25.7494C282.12 25.7494 281.785 25.7755 281.562 25.8277C279.551 25.9321 277.904 26.9239 276.62 28.8031C275.336 30.6301 274.694 32.8747 274.694 35.5369V59.0268C274.694 59.5488 274.415 59.8098 273.856 59.8098H269.585C269.026 59.8098 268.747 59.5488 268.747 59.0268V20.9732C268.747 20.4512 269.026 20.1902 269.585 20.1902H273.856C274.415 20.1902 274.694 20.4512 274.694 20.9732V25.6711C274.694 25.8277 274.722 25.906 274.777 25.906C274.889 25.906 275.001 25.8538 275.113 25.7494C276.732 21.7823 279.384 19.7987 283.069 19.7987ZM308.111 23.557C308.111 24.079 307.832 24.34 307.274 24.34H300.908C300.685 24.34 300.573 24.4444 300.573 24.6532V48.613C300.573 51.0142 301.02 52.6846 301.913 53.6242C302.807 54.5116 304.175 54.9292 306.017 54.877H306.855C307.413 54.877 307.692 55.138 307.692 55.66V59.0268C307.692 59.5488 307.413 59.8098 306.855 59.8098H304.761C301.467 59.8098 298.954 59.1573 297.223 57.8523C295.548 56.4952 294.71 53.9635 294.71 50.2573V24.6532C294.71 24.4444 294.599 24.34 294.375 24.34H291.109C290.551 24.34 290.271 24.079 290.271 23.557V20.9732C290.271 20.4512 290.551 20.1902 291.109 20.1902H294.375C294.599 20.1902 294.71 20.0858 294.71 19.877V11.1074C294.71 10.5854 294.99 10.3244 295.548 10.3244H299.736C300.294 10.3244 300.573 10.5854 300.573 11.1074V19.877C300.573 20.0858 300.685 20.1902 300.908 20.1902H307.274C307.832 20.1902 308.111 20.4512 308.111 20.9732V23.557Z"
        fill="#212529" />
</svg>